Coordinates
version=1
nRows=12
nColumns=42
inDegrees=yes

Units are S.I. units (second, meters, Newtons, ...)
If the header above contains a line with 'inDegrees', this indicates whether rotational values are in degrees (yes) or radians (no).

endheader
time	pelvis_tilt	pelvis_list	pelvis_rotation	pelvis_tx	pelvis_ty	pelvis_tz	hip_flexion_r	hip_adduction_r	hip_rotation_r	knee_angle_r	knee_adduction_r	knee_angle_r_beta	ankle_angle_r	subtalar_angle_r	mtp_angle_r	hip_flexion_l	hip_adduction_l	hip_rotation_l	knee_angle_l	knee_adduction_l	knee_angle_l_beta	ankle_angle_l	subtalar_angle_l	mtp_angle_l	lumbar_extension	lumbar_bending	lumbar_rotation	arm_flex_r	arm_add_r	arm_rot_r	elbow_flex_r	pro_sup_r	wrist_flex_r	wrist_dev_r	arm_flex_l	arm_add_l	arm_rot_l	elbow_flex_l	pro_sup_l	wrist_flex_l	wrist_dev_l
      2.43000000	     11.94809344	      4.30427675	      3.69617571	      0.62524302	      0.93334554	     -0.28520530	      5.37201536	     -4.48881422	     -5.17481334	     63.21731117	     -0.01327625	      1.10335022	      5.70019770	    -14.73311498	     -7.50580595	      1.07224572	      9.18523396	    -27.20323642	     25.41266058	     -9.52148115	      0.44353460	     22.19531442	     23.75877793	     -7.50580595	    -44.10256960	     -7.72105790	     -4.22782286	      3.91470807	     -8.32080778	     12.52782083	     38.79783622	     90.00000001	      0.00000000	      0.00000000	     -3.61771024	    -15.23377490	     17.29711459	     51.97809485	     90.00000001	      0.00000000	      0.00000000
      2.44000000	     11.73644222	      4.32032220	      3.61513707	      0.62954899	      0.93296381	     -0.28539897	      6.91707531	     -4.51233493	     -4.97774344	     63.07156586	     -0.37929841	      1.10080649	      6.71362845	    -14.08064058	     -7.50557576	      1.11978571	      9.01445156	    -29.16815184	     25.40148348	    -10.06130462	      0.44333952	     22.62293737	     26.95920700	     -7.50557576	    -43.92608300	     -7.71956913	     -4.20763136	      3.86060388	     -8.24904300	     12.46290328	     38.93530751	     90.00000001	      0.00000000	      0.00000000	     -3.55641249	    -15.28170750	     17.43720881	     51.83429009	     90.00000001	      0.00000000	      0.00000000
      2.45000000	     11.67020291	      4.30045163	      3.61552663	      0.63376715	      0.93319749	     -0.28561459	      8.13711898	     -4.35194266	     -4.89463157	     62.50142387	     -0.87433153	      1.09085563	      7.38361062	    -14.25520818	     -7.50550742	      0.73537880	      9.01212327	    -29.47991647	     25.08766124	    -10.10625576	      0.43786229	     22.81774207	     27.13039991	     -7.50550742	    -43.94400733	     -7.62860807	     -4.24220847	      3.89669760	     -8.19756459	     12.48283081	     38.97064750	     90.00000001	      0.00000000	      0.00000000	     -3.52037778	    -15.29632165	     17.44583744	     51.75715578	     90.00000001	      0.00000000	      0.00000000
      2.46000000	     11.69430781	      4.30390773	      3.56851692	      0.63827156	      0.93354009	     -0.28582644	      9.16520500	     -4.27501244	     -4.76875013	     61.73226880	     -1.21909165	      1.07743135	      8.06149329	    -14.15164373	     -7.50529705	      0.22378464	      8.95953154	    -30.47502453	     24.64803748	    -10.30054677	      0.43018941	     23.00266385	     29.05406677	     -7.50529705	    -44.01616130	     -7.56278616	     -4.22891456	      3.84397566	     -8.17026308	     12.43674513	     39.10021433	     90.00000001	      0.00000000	      0.00000000	     -3.50904053	    -15.29203467	     17.50638088	     51.62773726	     90.00000001	      0.00000000	      0.00000000
      2.47000000	     11.58816684	      4.35236020	      3.57106366	      0.64251707	      0.93364809	     -0.28599764	     10.33939636	     -4.19275742	     -4.65466227	     60.89597654	     -1.62702915	      1.06283529	      8.60762316	    -14.28821373	     -7.50523392	     -0.12464805	      9.08634170	    -30.63936120	     24.30277559	    -10.35675191	      0.42416345	     23.16648872	     29.06859267	     -7.50523392	    -43.98260015	     -7.54099628	     -4.31777986	      3.86803285	     -8.09744341	     12.45109621	     39.14855158	     90.00000001	      0.00000000	      0.00000000	     -3.52950341	    -15.34705400	     17.51697794	     51.52774861	     90.00000001	      0.00000000	      0.00000000
      2.48000000	     11.69527955	      4.43103835	      3.55289420	      0.64716037	      0.93423978	     -0.28623066	     11.10195683	     -4.20356477	     -4.46842781	     59.76755533	     -1.79693972	      1.04314063	      9.02605556	    -14.42950844	     -7.50509680	     -0.91786008	      9.23694844	    -30.89151814	     23.61113756	    -10.30657943	      0.41209209	     23.21859992	     29.98451642	     -7.50509680	    -44.13842417	     -7.51806786	     -4.37587122	      3.82839068	     -8.05366085	     12.39396063	     39.24250596	     90.00000001	      0.00000000	      0.00000000	     -3.55401322	    -15.37066112	     17.54369134	     51.36012514	     90.00000001	      0.00000000	      0.00000000
      2.49000000	     11.59975211	      4.50220159	      3.56099892	      0.65155672	      0.93431452	     -0.28644780	     12.12596860	     -4.18780200	     -4.34715942	     58.62698102	     -2.05713295	      1.02323385	      9.38639221	    -14.51204288	     -7.50503242	     -1.31928879	      9.44868354	    -30.94832047	     23.17335529	    -10.38977766	      0.40445135	     23.34471594	     29.99466903	     -7.50503242	    -44.09626087	     -7.49553967	     -4.45247606	      3.80055026	     -8.00598810	     12.38311630	     39.29770882	     90.00000001	      0.00000000	      0.00000000	     -3.64062346	    -15.41903429	     17.55191811	     51.27761940	     90.00000001	      0.00000000	      0.00000000
      2.50000000	     11.83168867	      4.58294315	      3.55678717	      0.65640164	      0.93516674	     -0.28671477	     12.54849455	     -4.20061743	     -4.15778424	     57.10133324	     -2.10381712	      0.99660627	      9.55103681	    -14.70363726	     -7.50490418	     -2.39381548	      9.68365445	    -30.81009285	     22.25548205	    -10.24350717	      0.38843144	     23.32133520	     30.55436927	     -7.50490418	    -44.36902834	     -7.44030541	     -4.52038144	      3.76319544	     -7.98248777	     12.29992420	     39.39334641	     90.00000001	      0.00000000	      0.00000000	     -3.70698484	    -15.42094403	     17.55343716	     51.13497145	     90.00000001	      0.00000000	      0.00000000
      2.51000000	     11.97498322	      4.67639973	      3.56492685	      0.66113870	      0.93575368	     -0.28694039	     13.05447633	     -4.23050057	     -4.04203373	     55.52065455	     -2.19066211	      0.96901822	      9.64455881	    -14.77483880	     -7.50477072	     -3.30239636	      9.95480496	    -30.52785736	     21.45949774	    -10.13007575	      0.37453889	     23.32530171	     30.68155753	     -7.50477072	    -44.55862652	     -7.40562623	     -4.62047331	      3.74054259	     -7.94728463	     12.24377125	     39.48901665	     90.00000001	      0.00000000	      0.00000000	     -3.81688878	    -15.46387369	     17.54034467	     51.00990269	     90.00000001	      0.00000000	      0.00000000
      2.52000000	     12.12502758	      4.77226118	      3.57024897	      0.66590920	      0.93630562	     -0.28715566	     13.49137459	     -4.29104764	     -3.97206878	     53.81782153	     -2.22521333	      0.93929818	      9.66491404	    -14.76619769	     -7.50463236	     -4.25379169	     10.26317761	    -30.10467736	     20.60539806	    -10.00153740	      0.35963204	     23.29010991	     30.62595800	     -7.50463236	    -44.75263303	     -7.36724631	     -4.69784479	      3.69949269	     -7.91336521	     12.18722156	     39.57771760	     90.00000001	      0.00000000	      0.00000000	     -3.93066033	    -15.48778876	     17.51639672	     50.90831950	     90.00000001	      0.00000000	      0.00000000
      2.53000000	     12.28269321	      4.88773369	      3.59755989	      0.67074983	      0.93681569	     -0.28743443	     13.84482255	     -4.37285176	     -3.91390683	     52.00143877	     -2.27214025	      0.90759632	      9.65357830	    -14.67084394	     -7.50449462	     -5.25875872	     10.60394297	    -29.60119303	     19.66805371	     -9.85675853	      0.34327229	     23.26410330	     30.47390294	     -7.50449462	    -44.94646526	     -7.32347231	     -4.82003450	      3.67731047	     -7.90837493	     12.12110089	     39.65609100	     90.00000001	      0.00000000	      0.00000000	     -4.06573892	    -15.52213597	     17.48867190	     50.78051808	     90.00000001	      0.00000000	      0.00000000
      2.54000000	     12.44281108	      4.99641563	      3.61213030	      0.67562893	      0.93726607	     -0.28762106	     14.14169062	     -4.45951479	     -3.92889008	     50.07881219	     -2.31224498	      0.87404016	      9.60455096	    -14.45391453	     -7.50434465	     -6.29299715	     10.95329326	    -29.02079257	     18.69330476	     -9.71886770	      0.32625972	     23.18226663	     30.21246559	     -7.50434465	    -45.14562360	     -7.28434851	     -4.90589808	      3.63467083	     -7.89216687	     12.06364110	     39.74535510	     90.00000001	      0.00000000	      0.00000000	     -4.20741682	    -15.56558353	     17.44695287	     50.68423579	     90.00000001	      0.00000000	      0.00000000
